<svg width="111" height="40" viewBox="0 0 111 40" fill="none" xmlns="http://www.w3.org/2000/svg">
<circle cx="26" cy="14" r="4" transform="rotate(90 26 14)" fill="#FF2700"/>
<circle cx="26" cy="25" r="4" transform="rotate(90 26 25)" fill="#FF2700"/>
<circle cx="4" cy="14.0625" r="4" transform="rotate(90 4 14.0625)" fill="#FF2700"/>
<circle cx="4" cy="25.0625" r="4" transform="rotate(90 4 25.0625)" fill="#FF2700"/>
<circle cx="15" cy="8.9375" r="4" transform="rotate(90 15 8.9375)" fill="#FF2700"/>
<circle cx="15" cy="19.9375" r="4" transform="rotate(90 15 19.9375)" fill="#FF2700"/>
<circle cx="15" cy="31.0625" r="4" transform="rotate(90 15 31.0625)" fill="#FF2700"/>
<path d="M103.053 39.6761H98.3012V32.495H95.7096V39.6761H90.9312V21.6693H95.7096V28.3375H98.3012V21.6693H103.053V39.6761Z" fill="black"/>
<path d="M84.2957 40C79.7872 40 77.7085 36.1665 77.7085 30.6862C77.7085 25.1788 79.7872 21.3723 84.2957 21.3723C87.8592 21.3723 88.9931 24.234 89.614 26.3937L85.8615 27.7705C85.5915 26.3937 85.2136 25.5838 84.2957 25.5838C82.9728 25.5838 82.5679 27.5815 82.5679 30.6862C82.5679 33.7908 82.9728 35.7885 84.2957 35.7885C85.2676 35.7885 85.7265 34.7086 85.8885 33.2778L89.614 34.6277C89.1011 36.8144 87.9672 40 84.2957 40Z" fill="black"/>
<path d="M74.402 39.6761H69.6236V25.8268H67.0049V21.6693H76.9936V25.8268H74.402V39.6761Z" fill="black"/>
<path d="M67.6726 39.6761H62.7862L62.4082 37.1654H59.5196L59.1686 39.6761H54.2822L58.2237 21.6693H63.7041L67.6726 39.6761ZM61.8683 33.0079L60.9774 26.8527L60.0865 33.0079H61.8683Z" fill="black"/>
<path d="M49.2081 39.6761H42V21.6693H48.9651C52.4477 21.6693 53.7165 24.018 53.7165 26.2587C53.7165 28.4995 52.4747 29.9843 50.7739 30.3892C52.6367 30.6862 53.9595 32.522 53.9595 34.7897C53.9595 37.3814 52.6637 39.6761 49.2081 39.6761ZM47.6153 28.4725C48.4792 28.4725 48.8571 28.0675 48.8571 27.1496C48.8571 26.2857 48.4792 25.8268 47.6153 25.8268H46.7784V28.4725H47.6153ZM47.7233 35.5186C48.5602 35.5186 49.1001 35.0866 49.1001 34.0608C49.1001 33.1159 48.5602 32.6299 47.7233 32.6299H46.7784V35.5186H47.7233Z" fill="black"/>
<path d="M103.928 18.3037H98.3398V0.296997H103.901C108.815 0.296997 110.893 4.2655 110.893 9.31387C110.893 14.4162 108.869 18.3037 103.928 18.3037ZM103.901 14.1463C105.197 14.1463 106.034 12.7424 106.034 9.31387C106.034 5.64233 105.17 4.45448 103.901 4.45448H103.118V14.1463H103.901Z" fill="black"/>
<path d="M96.4693 18.3037H87.3984V0.296997H96.4693V4.45448H92.1768V7.10015H96.2803V11.2576H92.1768V14.1463H96.4693V18.3037Z" fill="black"/>
<path d="M80.0416 18.6277C77.6659 18.6277 75.9651 17.9798 74.6152 16.7109L76.532 12.9854C77.3689 13.9573 78.6107 14.4162 79.7176 14.4162C80.5545 14.4162 80.9864 13.9033 80.9864 13.2553C80.9864 10.9876 75.1282 11.3116 75.1282 5.5883C75.1282 2.78065 77.0989 0 81.0134 0C82.8222 0 84.496 0.593926 85.6299 1.64679L83.9021 5.31834C83.1192 4.53543 82.2013 4.21147 81.2024 4.21147C80.4195 4.21147 79.9876 4.69741 79.9876 5.31834C79.9876 7.42407 85.8188 7.45107 85.8188 12.9044C85.8188 16.279 83.5781 18.6277 80.0416 18.6277Z" fill="black"/>
<path d="M74.6589 18.3037H69.7725L69.3945 15.7931H66.5059L66.1549 18.3037H61.2686L65.2101 0.296997H70.6904L74.6589 18.3037ZM68.8546 11.6356L67.9637 5.48035L67.0728 11.6356H68.8546Z" fill="black"/>
<path d="M60.3297 18.3037H55.5513V0.296997H60.3297V18.3037Z" fill="black"/>
<path d="M49.2081 18.3037H42V0.296997H48.9651C52.4477 0.296997 53.7165 2.6457 53.7165 4.88642C53.7165 7.12714 52.4747 8.61196 50.7739 9.01691C52.6367 9.31387 53.9595 11.1496 53.9595 13.4174C53.9595 16.009 52.6637 18.3037 49.2081 18.3037ZM47.6153 7.10015C48.4792 7.10015 48.8571 6.6952 48.8571 5.77731C48.8571 4.91342 48.4792 4.45448 47.6153 4.45448H46.7784V7.10015H47.6153ZM47.7233 14.1463C48.5602 14.1463 49.1001 13.7143 49.1001 12.6884C49.1001 11.7436 48.5602 11.2576 47.7233 11.2576H46.7784V14.1463H47.7233Z" fill="black"/>
</svg>
